<mxfile host="app.diagrams.net" agent="Mozilla/5.0 (Macintosh; Intel Mac OS X 10_15_7) AppleWebKit/537.36 (KHTML, like Gecko) Chrome/131.0.0.0 Safari/537.36" version="24.8.6" pages="3">
  <diagram name="Page-1" id="Ep7QaVkv6zU5ipOEX8Hd">
    <mxGraphModel dx="716" dy="411" grid="1" gridSize="10" guides="1" tooltips="1" connect="1" arrows="1" fold="1" page="1" pageScale="1" pageWidth="827" pageHeight="1169" math="0" shadow="0">
      <root>
        <mxCell id="0" />
        <mxCell id="1" parent="0" />
        <mxCell id="0lez0qawMhqUvhlGH24c-3" value="" style="edgeStyle=orthogonalEdgeStyle;rounded=0;orthogonalLoop=1;jettySize=auto;html=1;" edge="1" parent="1" source="0lez0qawMhqUvhlGH24c-1" target="0lez0qawMhqUvhlGH24c-2">
          <mxGeometry relative="1" as="geometry" />
        </mxCell>
        <mxCell id="0lez0qawMhqUvhlGH24c-1" value="Developer - JavaScript" style="rounded=0;whiteSpace=wrap;html=1;" vertex="1" parent="1">
          <mxGeometry x="280" y="80" width="220" height="40" as="geometry" />
        </mxCell>
        <mxCell id="0lez0qawMhqUvhlGH24c-5" value="" style="edgeStyle=orthogonalEdgeStyle;rounded=0;orthogonalLoop=1;jettySize=auto;html=1;" edge="1" parent="1" source="0lez0qawMhqUvhlGH24c-2" target="0lez0qawMhqUvhlGH24c-4">
          <mxGeometry relative="1" as="geometry" />
        </mxCell>
        <mxCell id="0lez0qawMhqUvhlGH24c-2" value="NodeJS - JavaScript API" style="rounded=0;whiteSpace=wrap;html=1;" vertex="1" parent="1">
          <mxGeometry x="280" y="150" width="220" height="40" as="geometry" />
        </mxCell>
        <mxCell id="0lez0qawMhqUvhlGH24c-7" value="" style="edgeStyle=orthogonalEdgeStyle;rounded=0;orthogonalLoop=1;jettySize=auto;html=1;" edge="1" parent="1" source="0lez0qawMhqUvhlGH24c-4" target="0lez0qawMhqUvhlGH24c-6">
          <mxGeometry relative="1" as="geometry" />
        </mxCell>
        <mxCell id="0lez0qawMhqUvhlGH24c-4" value="NodeJS - C++ API" style="rounded=0;whiteSpace=wrap;html=1;" vertex="1" parent="1">
          <mxGeometry x="280" y="230" width="220" height="40" as="geometry" />
        </mxCell>
        <mxCell id="0lez0qawMhqUvhlGH24c-6" value="OS / Kernal / Shells" style="rounded=0;whiteSpace=wrap;html=1;" vertex="1" parent="1">
          <mxGeometry x="280" y="310" width="220" height="40" as="geometry" />
        </mxCell>
        <mxCell id="0lez0qawMhqUvhlGH24c-8" value="70%" style="text;html=1;align=center;verticalAlign=middle;resizable=0;points=[];autosize=1;strokeColor=none;fillColor=none;" vertex="1" parent="1">
          <mxGeometry x="515" y="148" width="50" height="30" as="geometry" />
        </mxCell>
        <mxCell id="0lez0qawMhqUvhlGH24c-9" value="30%" style="text;html=1;align=center;verticalAlign=middle;resizable=0;points=[];autosize=1;strokeColor=none;fillColor=none;" vertex="1" parent="1">
          <mxGeometry x="515" y="230" width="50" height="30" as="geometry" />
        </mxCell>
        <mxCell id="0lez0qawMhqUvhlGH24c-10" value="V8 JavaScript Engine" style="text;html=1;align=center;verticalAlign=middle;resizable=0;points=[];autosize=1;strokeColor=none;fillColor=none;" vertex="1" parent="1">
          <mxGeometry x="70" y="198" width="140" height="30" as="geometry" />
        </mxCell>
      </root>
    </mxGraphModel>
  </diagram>
  <diagram id="ggbwuoC30N1DgtuEpqGs" name="Page-2">
    <mxGraphModel dx="691" dy="397" grid="1" gridSize="10" guides="1" tooltips="1" connect="1" arrows="1" fold="1" page="1" pageScale="1" pageWidth="827" pageHeight="1169" math="0" shadow="0">
      <root>
        <mxCell id="0" />
        <mxCell id="1" parent="0" />
        <mxCell id="-mm5ponQ0_nESR0_AV9g-8" style="edgeStyle=orthogonalEdgeStyle;rounded=0;orthogonalLoop=1;jettySize=auto;html=1;exitX=1;exitY=0.5;exitDx=0;exitDy=0;entryX=0;entryY=0;entryDx=0;entryDy=0;" edge="1" parent="1" source="-mm5ponQ0_nESR0_AV9g-1" target="-mm5ponQ0_nESR0_AV9g-7">
          <mxGeometry relative="1" as="geometry" />
        </mxCell>
        <mxCell id="-mm5ponQ0_nESR0_AV9g-1" value="E1" style="rounded=0;whiteSpace=wrap;html=1;" vertex="1" parent="1">
          <mxGeometry x="80" y="160" width="60" height="30" as="geometry" />
        </mxCell>
        <mxCell id="-mm5ponQ0_nESR0_AV9g-2" value="E2" style="rounded=0;whiteSpace=wrap;html=1;" vertex="1" parent="1">
          <mxGeometry x="80" y="210" width="60" height="30" as="geometry" />
        </mxCell>
        <mxCell id="-mm5ponQ0_nESR0_AV9g-3" value="E3" style="rounded=0;whiteSpace=wrap;html=1;" vertex="1" parent="1">
          <mxGeometry x="80" y="260" width="60" height="30" as="geometry" />
        </mxCell>
        <mxCell id="-mm5ponQ0_nESR0_AV9g-4" value="E..n" style="rounded=0;whiteSpace=wrap;html=1;" vertex="1" parent="1">
          <mxGeometry x="80" y="310" width="60" height="30" as="geometry" />
        </mxCell>
        <mxCell id="-mm5ponQ0_nESR0_AV9g-6" value="EVENT QUEUE" style="text;html=1;align=center;verticalAlign=middle;resizable=0;points=[];autosize=1;strokeColor=none;fillColor=none;" vertex="1" parent="1">
          <mxGeometry x="55" y="368" width="110" height="30" as="geometry" />
        </mxCell>
        <mxCell id="-mm5ponQ0_nESR0_AV9g-13" style="edgeStyle=orthogonalEdgeStyle;rounded=0;orthogonalLoop=1;jettySize=auto;html=1;exitX=1;exitY=0;exitDx=0;exitDy=0;entryX=0;entryY=0.25;entryDx=0;entryDy=0;" edge="1" parent="1" source="-mm5ponQ0_nESR0_AV9g-7" target="-mm5ponQ0_nESR0_AV9g-9">
          <mxGeometry relative="1" as="geometry" />
        </mxCell>
        <mxCell id="-mm5ponQ0_nESR0_AV9g-7" value="Event Loop&lt;div&gt;T1&lt;/div&gt;" style="ellipse;whiteSpace=wrap;html=1;aspect=fixed;" vertex="1" parent="1">
          <mxGeometry x="240" y="200" width="80" height="80" as="geometry" />
        </mxCell>
        <mxCell id="-mm5ponQ0_nESR0_AV9g-23" style="edgeStyle=orthogonalEdgeStyle;rounded=0;orthogonalLoop=1;jettySize=auto;html=1;exitX=1;exitY=0.5;exitDx=0;exitDy=0;entryX=0;entryY=0.5;entryDx=0;entryDy=0;" edge="1" parent="1" source="-mm5ponQ0_nESR0_AV9g-9" target="-mm5ponQ0_nESR0_AV9g-21">
          <mxGeometry relative="1" as="geometry" />
        </mxCell>
        <mxCell id="-mm5ponQ0_nESR0_AV9g-9" value="Event Handler 1" style="rounded=0;whiteSpace=wrap;html=1;" vertex="1" parent="1">
          <mxGeometry x="390" y="160" width="120" height="30" as="geometry" />
        </mxCell>
        <mxCell id="-mm5ponQ0_nESR0_AV9g-10" value="Event Handler 2" style="rounded=0;whiteSpace=wrap;html=1;" vertex="1" parent="1">
          <mxGeometry x="390" y="210" width="120" height="30" as="geometry" />
        </mxCell>
        <mxCell id="-mm5ponQ0_nESR0_AV9g-11" value="Event Handler 3" style="rounded=0;whiteSpace=wrap;html=1;" vertex="1" parent="1">
          <mxGeometry x="390" y="260" width="120" height="30" as="geometry" />
        </mxCell>
        <mxCell id="-mm5ponQ0_nESR0_AV9g-12" value="Event Handler n" style="rounded=0;whiteSpace=wrap;html=1;" vertex="1" parent="1">
          <mxGeometry x="390" y="320" width="120" height="30" as="geometry" />
        </mxCell>
        <mxCell id="-mm5ponQ0_nESR0_AV9g-22" style="edgeStyle=orthogonalEdgeStyle;rounded=0;orthogonalLoop=1;jettySize=auto;html=1;exitX=0.5;exitY=1;exitDx=0;exitDy=0;entryX=0.5;entryY=0;entryDx=0;entryDy=0;" edge="1" parent="1" source="-mm5ponQ0_nESR0_AV9g-14" target="-mm5ponQ0_nESR0_AV9g-21">
          <mxGeometry relative="1" as="geometry" />
        </mxCell>
        <mxCell id="-mm5ponQ0_nESR0_AV9g-14" value="" style="rounded=0;whiteSpace=wrap;html=1;" vertex="1" parent="1">
          <mxGeometry x="560" y="60" width="120" height="60" as="geometry" />
        </mxCell>
        <mxCell id="-mm5ponQ0_nESR0_AV9g-15" value="C++ Thread Pool" style="text;html=1;align=center;verticalAlign=middle;resizable=0;points=[];autosize=1;strokeColor=none;fillColor=none;" vertex="1" parent="1">
          <mxGeometry x="560" y="30" width="110" height="30" as="geometry" />
        </mxCell>
        <mxCell id="-mm5ponQ0_nESR0_AV9g-16" value="T2" style="ellipse;whiteSpace=wrap;html=1;aspect=fixed;" vertex="1" parent="1">
          <mxGeometry x="570" y="60" width="30" height="30" as="geometry" />
        </mxCell>
        <mxCell id="-mm5ponQ0_nESR0_AV9g-18" value="T2" style="ellipse;whiteSpace=wrap;html=1;aspect=fixed;" vertex="1" parent="1">
          <mxGeometry x="605" y="70" width="30" height="30" as="geometry" />
        </mxCell>
        <mxCell id="-mm5ponQ0_nESR0_AV9g-19" value="T2" style="ellipse;whiteSpace=wrap;html=1;aspect=fixed;" vertex="1" parent="1">
          <mxGeometry x="640" y="60" width="30" height="30" as="geometry" />
        </mxCell>
        <mxCell id="-mm5ponQ0_nESR0_AV9g-20" value="T2" style="ellipse;whiteSpace=wrap;html=1;aspect=fixed;" vertex="1" parent="1">
          <mxGeometry x="635" y="90" width="30" height="30" as="geometry" />
        </mxCell>
        <mxCell id="-mm5ponQ0_nESR0_AV9g-24" style="edgeStyle=orthogonalEdgeStyle;rounded=0;orthogonalLoop=1;jettySize=auto;html=1;exitX=0;exitY=0.25;exitDx=0;exitDy=0;" edge="1" parent="1" source="-mm5ponQ0_nESR0_AV9g-21" target="-mm5ponQ0_nESR0_AV9g-7">
          <mxGeometry relative="1" as="geometry">
            <Array as="points">
              <mxPoint x="570" y="140" />
              <mxPoint x="280" y="140" />
            </Array>
          </mxGeometry>
        </mxCell>
        <mxCell id="-mm5ponQ0_nESR0_AV9g-21" value="EH1" style="rounded=0;whiteSpace=wrap;html=1;" vertex="1" parent="1">
          <mxGeometry x="570" y="157.5" width="100" height="35" as="geometry" />
        </mxCell>
        <mxCell id="-mm5ponQ0_nESR0_AV9g-17" value="T2" style="ellipse;whiteSpace=wrap;html=1;aspect=fixed;" vertex="1" parent="1">
          <mxGeometry x="640" y="150" width="30" height="30" as="geometry" />
        </mxCell>
        <mxCell id="-mm5ponQ0_nESR0_AV9g-25" value="libuv Library" style="text;html=1;align=center;verticalAlign=middle;resizable=0;points=[];autosize=1;strokeColor=none;fillColor=none;" vertex="1" parent="1">
          <mxGeometry x="565" y="8" width="90" height="30" as="geometry" />
        </mxCell>
        <mxCell id="-mm5ponQ0_nESR0_AV9g-26" value="NodeJS Internals" style="text;strokeColor=none;fillColor=none;html=1;fontSize=24;fontStyle=1;verticalAlign=middle;align=center;" vertex="1" parent="1">
          <mxGeometry x="260" y="20" width="100" height="40" as="geometry" />
        </mxCell>
      </root>
    </mxGraphModel>
  </diagram>
  <diagram id="NOtM3ym6pvUkBD0SJBfj" name="Page-3">
    <mxGraphModel dx="675" dy="371" grid="1" gridSize="10" guides="1" tooltips="1" connect="1" arrows="1" fold="1" page="1" pageScale="1" pageWidth="827" pageHeight="1169" math="0" shadow="0">
      <root>
        <mxCell id="0" />
        <mxCell id="1" parent="0" />
        <mxCell id="Y0YKJhCYCyPxAMHlMNCQ-6" style="edgeStyle=orthogonalEdgeStyle;rounded=0;orthogonalLoop=1;jettySize=auto;html=1;exitX=0.5;exitY=1;exitDx=0;exitDy=0;entryX=0.5;entryY=0;entryDx=0;entryDy=0;" edge="1" parent="1" source="Y0YKJhCYCyPxAMHlMNCQ-1" target="Y0YKJhCYCyPxAMHlMNCQ-4">
          <mxGeometry relative="1" as="geometry" />
        </mxCell>
        <mxCell id="Y0YKJhCYCyPxAMHlMNCQ-7" style="edgeStyle=orthogonalEdgeStyle;rounded=0;orthogonalLoop=1;jettySize=auto;html=1;exitX=0.5;exitY=1;exitDx=0;exitDy=0;entryX=0.5;entryY=0;entryDx=0;entryDy=0;" edge="1" parent="1" source="Y0YKJhCYCyPxAMHlMNCQ-1" target="Y0YKJhCYCyPxAMHlMNCQ-5">
          <mxGeometry relative="1" as="geometry" />
        </mxCell>
        <mxCell id="Y0YKJhCYCyPxAMHlMNCQ-1" value="Module Types" style="rounded=0;whiteSpace=wrap;html=1;" vertex="1" parent="1">
          <mxGeometry x="340" y="100" width="120" height="60" as="geometry" />
        </mxCell>
        <mxCell id="Y0YKJhCYCyPxAMHlMNCQ-10" value="" style="edgeStyle=orthogonalEdgeStyle;rounded=0;orthogonalLoop=1;jettySize=auto;html=1;" edge="1" parent="1" source="Y0YKJhCYCyPxAMHlMNCQ-2" target="Y0YKJhCYCyPxAMHlMNCQ-9">
          <mxGeometry relative="1" as="geometry" />
        </mxCell>
        <mxCell id="Y0YKJhCYCyPxAMHlMNCQ-2" value="Core Modules" style="whiteSpace=wrap;html=1;rounded=0;" vertex="1" parent="1">
          <mxGeometry x="180" y="230" width="120" height="60" as="geometry" />
        </mxCell>
        <mxCell id="Y0YKJhCYCyPxAMHlMNCQ-12" value="" style="edgeStyle=orthogonalEdgeStyle;rounded=0;orthogonalLoop=1;jettySize=auto;html=1;" edge="1" parent="1" source="Y0YKJhCYCyPxAMHlMNCQ-4" target="Y0YKJhCYCyPxAMHlMNCQ-11">
          <mxGeometry relative="1" as="geometry" />
        </mxCell>
        <mxCell id="Y0YKJhCYCyPxAMHlMNCQ-4" value="External Modules" style="whiteSpace=wrap;html=1;rounded=0;" vertex="1" parent="1">
          <mxGeometry x="340" y="230" width="120" height="60" as="geometry" />
        </mxCell>
        <mxCell id="Y0YKJhCYCyPxAMHlMNCQ-14" value="" style="edgeStyle=orthogonalEdgeStyle;rounded=0;orthogonalLoop=1;jettySize=auto;html=1;" edge="1" parent="1" source="Y0YKJhCYCyPxAMHlMNCQ-5" target="Y0YKJhCYCyPxAMHlMNCQ-13">
          <mxGeometry relative="1" as="geometry" />
        </mxCell>
        <mxCell id="Y0YKJhCYCyPxAMHlMNCQ-5" value="File Modules" style="whiteSpace=wrap;html=1;rounded=0;" vertex="1" parent="1">
          <mxGeometry x="500" y="230" width="120" height="60" as="geometry" />
        </mxCell>
        <mxCell id="Y0YKJhCYCyPxAMHlMNCQ-8" style="edgeStyle=orthogonalEdgeStyle;rounded=0;orthogonalLoop=1;jettySize=auto;html=1;exitX=0.5;exitY=1;exitDx=0;exitDy=0;entryX=0.552;entryY=0.044;entryDx=0;entryDy=0;entryPerimeter=0;" edge="1" parent="1" source="Y0YKJhCYCyPxAMHlMNCQ-1" target="Y0YKJhCYCyPxAMHlMNCQ-2">
          <mxGeometry relative="1" as="geometry" />
        </mxCell>
        <mxCell id="Y0YKJhCYCyPxAMHlMNCQ-9" value="Installed with NodeJS&lt;div&gt;eg. http, os, path, events, fs etc&lt;/div&gt;" style="whiteSpace=wrap;html=1;rounded=0;" vertex="1" parent="1">
          <mxGeometry x="180" y="320" width="120" height="60" as="geometry" />
        </mxCell>
        <mxCell id="Y0YKJhCYCyPxAMHlMNCQ-11" value="Provided by community people.&lt;div&gt;eg. react, vue, angular, colors etc&lt;/div&gt;" style="whiteSpace=wrap;html=1;rounded=0;" vertex="1" parent="1">
          <mxGeometry x="340" y="320" width="120" height="60" as="geometry" />
        </mxCell>
        <mxCell id="Y0YKJhCYCyPxAMHlMNCQ-13" value="Specific to App, created by App developer" style="whiteSpace=wrap;html=1;rounded=0;" vertex="1" parent="1">
          <mxGeometry x="500" y="320" width="120" height="60" as="geometry" />
        </mxCell>
      </root>
    </mxGraphModel>
  </diagram>
</mxfile>
